<svg xmlns="http://www.w3.org/2000/svg" viewBox="0 0 1200 1200">
  <path fill="#F0C9A1" d="M426.295 485.539s-46.183 51.319 37.067 78.213c0 0 20.721 99.508 159.898 127.747l56.205 45.72 74.231-49.082s98.256-12.102 149.981-125.73c0 0 74.08-15.844 31.555-80.682 0 0-44.826 93.121-23.757-52.107l-27.341-55.968s-13.111 28.738-28.239 29.746c-15.128 1.009-18.379-33.281-37.932-44.375 0 0 27.847 74.631-87.125-10.085 0 0 24.205 50.426-1.009 44.375-25.213-6.051-41.35-19.661-41.35-19.661s11.094 43.866-115.981-42.868c0 0-4.974 58.495-23.666 69.589 0 0 1.478-31.499-18.692-56.091 0 0-6.64 41.971-27.819 61.133-21.179 19.162-51.487 48.409-45.804 111.541-.001 0-16.068-2.725-30.222-31.415z"/>
  <path fill="#F6DFC2" d="M473.325 913.636s-38.231-59.979-51.771-61.445c-13.541-1.466-22.12 24.205-8.034 64.546 14.085 40.341 51.737 14.641 59.805-3.101zM894.218 913.016s17.076-40.654 34.087-45.36c0 0 36.081 40.985 11.553 59.232-24.527 18.246-33.538 13.334-45.64-13.872z"/>
  <path fill="#F0C9A1" d="M582.142 1057.377l62.633 9.63s.952 33.299 3.362 52.109-43.031 32.434-73.286 14.872c0 0 5.379-15.542 16.136-33.697 9.013-10.087-8.845-42.914-8.845-42.914zM719.406 1067.007l57.822-5.714s-12.102 37.652-6.051 43.703c6.051 6.051 45.048 37.27-22.86 37.125-53.115 0-21.515-25.698-28.911-75.114z"/>
  <g fill="#F6DFC2">
    <path d="M621.915 662.672c65.134 31.264 143.295 7.816 190.192-49.502 55.227-67.308 73.846-150.621 68.78-233.28-4.807 8.512-14.402 22.8-24.993 23.506-15.128 1.009-18.379-33.281-37.932-44.375 0 0 27.847 74.631-87.125-10.085 0 0 24.205 50.427-1.008 44.375-25.213-6.051-41.35-19.661-41.35-19.661s11.094 43.866-115.981-42.868c0 0-4.974 58.495-23.666 69.588 0 0 1.478-31.499-18.692-56.091 0 0-6.639 41.971-27.818 61.133a514.499 514.499 0 00-3.422 3.124c-.3 99.216 30.901 210.503 123.015 254.136zM590.987 1100.291c-10.758 18.155-16.136 33.697-16.136 33.697 30.256 17.562 75.696 3.938 73.286-14.872-.803-6.272-1.444-14.155-1.942-21.877-18.351-2.954-36.342-7.407-53.706-13.514 1.51 6.719 1.652 13.036-1.502 16.566zM771.177 1104.996c-1.401-1.401-1.821-4.507-1.651-8.436a429.494 429.494 0 01-50.183 4.886c-3.378 26.845-9.966 40.675 28.975 40.674 67.907.146 28.911-31.073 22.859-37.124z"/>
  </g>
  <path fill="#312A2A" d="M450.834 187.571s-15.496-42.358 68.212-74.631 203.723-104.887 292.473 0c0 0 73.217 19.162 116.787 74.631h-23.133s103.009 95.262 82.838 191.851-66.63 100.446-76.537 124.271c0 0-6.949-31.716 0-74.074l-27.341-55.968s-12.103 32.63-28.239 29.746c-16.136-2.884-24.43-30.256-37.932-44.375 0 0-.392 31.264-10.477 30.256-10.085-1.009-76.648-40.341-76.648-40.341l4.391 44.751-44.937-24.58s19.367 53.452-117.793-38.324c0 0 2.192 59.005-16.136 66.563-18.329 7.557 8.189-15.587-27.17-48.134 0 0-12.163 45.665-40.401 67.296s-37.102 88.429-31.264 105.827c0 0-28.239-18.565-32.273-55.136 0 0-85.725-49.682-23.196-211.047L366.63 270.27s-11.238-62.529 84.204-82.699z"/>
  <path fill="#473F3F" d="M874.636 326.58c18.238 15.632 20.843 46.897 44.291 52.107 18.238 2.605 36.475-23.448 31.264-44.291-13.027-52.107-54.713-88.582-75.556-132.874-5.211-13.027-15.632-36.475-28.659-44.291-33.87-15.632-62.529-31.264-88.582-57.318-49.502-44.291-122.452-23.448-179.77 2.605-39.08 18.238-91.188 54.713-99.004 104.215-5.211 23.448-44.291 44.291-52.107 75.556-16.955 58.132-13.612 136.501 39.274 170.268 5.353-14.896 12.942-28.343 23.003-36.05 28.239-21.631 40.401-67.296 40.401-67.296 35.359 32.548 8.841 55.692 27.17 48.134 18.329-7.557 16.137-66.563 16.137-66.563 137.16 91.776 117.793 38.324 117.793 38.324l44.938 24.58-4.391-44.751s66.563 39.333 76.648 40.341c10.085 1.008 10.477-30.256 10.477-30.256.042.044.082.096.124.14-2.927-17.808-9.57-35.616-11.189-53.424 18.236 18.238 46.895 65.135 67.738 20.844z"/>
  <g>
    <path fill="#3F5855" d="M619.148 684.791l60.316 52.428 74.231-49.082 71.942-30.256s103.805 109.875 108.921 194.25c0 0-14.063 15.083-40.341 51.443-26.279 36.359-54.067 34.149-54.067 34.149l-26.616 108.106s-78.597 39.333-264.704 4.034c0 0-20.328-38.71-26.57-112.14 0 0-31.883 11.672-58.899-42.562-15.922-33.936-37.067-43.03-37.067-43.03s24.223-107.221 115.855-190.946c.001.001 35.909 17.57 76.999 23.606z"/>
    <path fill="#526E6A" d="M783.448 733.017c-59.923 33.87-122.452 28.659-184.981 5.211-74.35 91.698-40.258 209.328-32.271 314.768 123.298 21.097 196.203 8.621 228.113-.388 25.777-105.647 27.312-217.797-10.861-319.591zM856.398 738.228c-13.027-13.027-15.632 15.632-10.421 28.659 16.082 52.839 20.004 107.705 20.708 162.809 8.47-4.998 18.096-13.063 27.534-26.122 12.674-17.536 22.476-30.08 29.259-38.412-11.5-47.859-31.053-92.545-67.08-126.934zM506.708 738.228c13.027-13.027 15.632 15.632 10.421 28.659-16.082 52.839-20.004 107.705-20.708 162.809-8.47-4.998-18.096-13.063-27.533-26.122-12.674-17.536-22.476-30.08-29.259-38.412 11.499-47.859 31.052-92.545 67.079-126.934z"/>
  </g>
  <g>
    <path fill="#5C2727" d="M528.717 832.777s-26.435 19.784-6.455 75.068c0 0 164.988 80.915 317.89-9.053 0 0 14.767-36.204-6.429-58.674 0 .001-180.363 71.325-305.006-7.341z"/>
    <path fill="#773F3F" d="M810.213 848.067c-48.711 14.84-163.97 41.484-257.917-2.431-2.725 24.248-4.854 48.495-3.87 72.743 48.72 17.172 158.295 44.422 266.671-6.425.544-21.275-1.041-42.713-4.884-63.887z"/>
  </g>
  <g fill="#F0BDA1">
    <ellipse cx="553.899" cy="558.771" rx="39.105" ry="21.511"/>
    <ellipse cx="817.041" cy="558.771" rx="39.105" ry="21.511"/>
  </g>
  <g>
    <path fill="#ADA180" d="M402.057 902.69l-45.721-29.903s-36.307 29.712-114.3-33.43 9.929-129.627 34.962-143.449 36.307-3.025 59.167 32.59 39.941 65.079 39.469 123.633l30.659 15.524-4.236 35.035z"/>
    <path fill="#C9BC95" d="M330.114 852.864c24.582-5.268 37.319-19.713 42.92-38.737-5.572-35.211-19.56-58.662-36.869-85.628-22.86-35.615-34.134-46.412-59.167-32.59-17.084 9.433-63.442 43.395-66.382 84.081 30.351 42.891 70.79 86.79 119.498 72.874z"/>
  </g>
  <g>
    <g fill="#1A122E">
      <circle cx="562.684" cy="485.913" r="18.341"/>
      <path d="M739.151 574.533c-3.725-2.1-8.467-.772-10.622 2.913-.443.763-11.131 18.293-47.382 19.045-36.044-.751-46.81-18.09-47.365-19.031a7.82 7.82 0 00-10.559-3.035 7.819 7.819 0 00-3.119 10.605c.578 1.057 14.037 24.749 56.992 26.949a7.839 7.839 0 001.646.181c.821 0 1.608-.026 2.409-.041.801.015 1.589.041 2.409.041.565 0 1.114-.067 1.646-.181 42.956-2.2 56.415-25.893 56.992-26.949 2.047-3.75.673-8.396-3.047-10.497z"/>
      <circle cx="799.62" cy="485.913" r="18.341"/>
      <path d="M998.452 336.627c-3.216-54.631-51.794-111.26-78.202-138.21l17.174 1.808a7.795 7.795 0 007.613-3.907 7.822 7.822 0 00-.527-8.539c-25.693-34.451-73.42-59.19-112.453-74.8-1.276-1.505-31.57-36.535-97.885-57.926-54-17.421-129.118 13.813-189.477 38.906-15.289 6.356-29.728 12.359-41.935 16.719-34.844 12.445-48.495 34.195-53.698 51.528-2.478-9.64-3.149-23.124 2-40.95a7.816 7.816 0 10-15.017-4.339c-9.107 31.519-2.624 52.655 4.009 64.525-29.071 5.536-50.729 17.569-64.482 35.865-20.138 26.793-15.401 56.911-15.189 58.179a7.816 7.816 0 0011.968 5.268l18.347-11.925c-9.971 23.976-21.889 62.293-19.935 105.295 2.796 61.479 35.358 87.413 46.698 94.618a129.403 129.403 0 002.356 11.831c-3.675 1.897-7.84 5.006-11.03 10.12-5.969 9.57-6.29 22.546-.947 38.567 10.236 30.715 34.407 39.931 49.188 40.93 5.665 13.599 13.924 29.352 25.882 45.159 10.982 14.518 25.982 30.082 46.211 43.865-21.919 20.006-84.386 84.305-110.357 187.129-5.105 1.002-11.076 3.618-15.17 9.341a23.773 23.773 0 00-1.539 2.495l-22.036-14.084c8.941-37.664-10.805-89.41-41.297-129.045-18.792-24.423-32.257-34.496-46.479-34.768-.191-.005-.377-.005-.565-.005-19.779 0-37.826 19.891-62.989 50.128-20.8 24.993-29.237 44.011-27.354 61.669 2.473 23.229 22.568 40.661 48.578 61.035 30.234 23.688 55.776 35.475 77.143 35.475 10.742 0 20.417-3.014 29.113-8.961l35.281 21.85c2.755 5.6 10.684 20.469 22.469 32.254 5.997 5.999 14.485 9.175 23.677 9.175 4.107 0 8.355-.634 12.582-1.936 9.514-2.928 17.292-8.652 22.183-15.928 15.481 15.87 30.232 19.177 39.732 19.177.883 0 1.708-.034 2.497-.082 2.622 29.518 9.266 69.292 25.557 107.513a7.808 7.808 0 003.353 3.745c.663.374 9.189 4.99 30.728 9.432l10.299 37.764c-8.134 6.585-20.978 19.299-17.385 31.61 3.692 12.643 20.538 14.915 32.885 15.525 3.707.183 7.195.277 10.48.277 20.8 0 33.335-3.717 40.037-11.701 8.043-9.582 5.198-22.092 2.687-33.132l-.104-.461c-3.018-13.278-1.702-25.921-.756-31.856 7.905.245 16.302.385 25.273.385.743 0 1.486 0 2.236-.003a7.797 7.797 0 001.523-.157c.482.093.977.15 1.487.15h.02a822.863 822.863 0 0027.462-.513c.944 5.944 2.244 18.542-.765 31.8l-.104.466c-2.511 11.058-5.356 23.591 2.712 33.14 6.6 7.816 18.828 11.467 39.007 11.467 3.567 0 7.389-.115 11.467-.341 7.106-.392 28.733-1.59 32.791-15.726 3.529-12.297-9.238-24.893-17.35-31.427l10.277-37.785c21.497-4.542 29.99-9.192 30.651-9.567a7.818 7.818 0 003.331-3.738c16.232-38.226 22.852-77.959 25.464-107.433.741.043 1.518.071 2.343.071 9.852 0 25.447-3.575 41.624-21.301 3.192 8.58 8.651 18.006 17.849 21.721a22.019 22.019 0 008.322 1.628c6.801-.003 14.06-3.068 21.683-9.18 10.205-8.18 15.523-18.067 15.805-29.389.453-18.258-12.903-34.695-19.731-41.884 4.008-4.302 6.103-6.062 6.145-6.096a7.82 7.82 0 002.694-7.875c-24.956-105.828-89.143-171.891-111.295-192.128 20.171-13.764 35.138-29.296 46.1-43.788 11.958-15.807 20.217-31.56 25.882-45.159 14.783-1.001 38.952-10.217 49.188-40.93 5.061-15.178 4.704-27.986-1.056-38.069a32.718 32.718 0 00-6.54-8.104c33.064-14.103 55.627-77.705 51.586-146.457zM422.671 524.315c-3.704-11.111-3.951-19.819-.72-25.185a12.124 12.124 0 012.838-3.215c5.638 13.834 13.203 23.892 20.629 31.086a7.77 7.77 0 00-.183 2.875c.102.795 1.33 9.822 5.6 23.357-9.004-2.519-21.702-9.53-28.164-28.918zm-6.414 340.537c1.503-2.158 4.01-2.941 5.851-3.229 2.498 2.406 7.238 7.289 14.074 15.66.006.69.07 1.386.269 2.082 4.552 15.912-1.018 26.73-5.414 28.318-2.786 1.01-6.636-2.755-9.544-9.376-9.961-22.672-6.979-30.949-5.236-33.455zm-156.704-24.048c-26.397-20.678-41.017-34.831-42.673-50.385-1.376-12.935 6.193-28.829 23.825-50.016 24.525-29.468 39.195-44.495 50.978-44.495.087 0 .176 0 .262.003 8.773.168 19.057 8.742 34.389 28.669 36.763 47.787 55.939 113.071 24.392 139.608h-.003c-19.897 16.742-49.721 9.083-91.17-23.384zm108.597 27.847a56.525 56.525 0 006.295-9.567l21.538 13.765c.89.568 1.854.918 2.833 1.093.168 4.611 1.059 9.722 2.705 15.377l-33.371-20.668zm77.432 57.374c-6.274 1.933-14.845 2.083-20.327-3.121 1.582.411 3.153.609 4.685.609 2.247 0 4.409-.41 6.401-1.127 7.926-2.86 14.448-11.248 16.644-22.869a581.154 581.154 0 017.27 10.517c.429.636.86 1.198 1.29 1.811-2.043 6.301-8.07 11.751-15.963 14.18zm27.629-24.738c-19.973-29.578-33.419-44.223-39.556-50.242 26.08-104.261 93.149-168.843 109.323-183.204 19.092 10.913 42.119 20.105 69.821 25.869a7.761 7.761 0 002.039 2.651l49.171 40.915c-50.369 31.656-103.112 62.984-126.793 76.936 3.829-38.366 14.413-73.982 14.531-74.384a7.815 7.815 0 00-14.971-4.496c-.563 1.873-13.542 45.517-16.118 89.946-6.522 7.69-23.175 32.789-7.528 74.382-.145 3.924-.383 14.315.368 28.901-7.138.35-23.332-2.165-40.287-27.274zM679.371 700.2a7.75 7.75 0 001.782-.223 7.764 7.764 0 001.782.223c14.988 0 28.976-.894 42.088-2.491-14.31 9.687-30.414 20.164-47.127 30.789l-36.394-30.283c11.884 1.285 24.485 1.985 37.869 1.985zm1.091 178.453h.58c.115 0 .222-.029.336-.034.115.005.224.034.34.034h.01c89.557-.115 135.278-27.168 151.285-39.295 5.216 8.379 12.167 26.367 1.696 54.317-5.9 5.664-43.902 37.577-150.554 37.76a7.77 7.77 0 00-2.794.542 7.75 7.75 0 00-2.778-.532c-.394-.013-.595 0-.901 0-105.237 0-144.033-31.822-149.974-37.355-10.517-28.024-3.482-46.072 1.741-54.434 15.99 12.069 61.66 38.997 151.013 38.997zm-42.579 229.519l.107.463c1.868 8.218 3.633 15.978.583 19.614-2.326 2.773-10.33 7.216-37.77 5.862-16.052-.794-18.617-4.267-18.645-4.267-.402-2.672 6.824-11.437 15.826-17.856a7.818 7.818 0 003.015-8.429l-9.748-35.744c12.23 1.814 27.235 3.393 45.408 4.373-1.094 7.743-2.092 21.388 1.224 35.984zm126.811 3.345c8.981 6.366 16.172 15.06 15.785 17.632-.02.036-2.443 3.59-18.652 4.488-27.359 1.516-35.351-2.862-37.668-5.608-3.04-3.598-1.277-11.365.59-19.591l.107-.466c3.318-14.621 2.315-28.267 1.221-35.998 18.146-1.067 33.089-2.723 45.299-4.594l-9.712 35.705a7.817 7.817 0 003.03 8.432zm44.461-69.39c-8.584 3.557-43.136 15.261-126.284 15.467a7.797 7.797 0 00-1.523.157 7.827 7.827 0 00-1.487-.15l-2.203.003c-81.759 0-115.847-11.401-124.289-14.854-20.448-49.593-24.162-102.703-24.652-128.314 19.976 12.897 64.369 32.641 148.957 32.641h.924a7.77 7.77 0 002.794-.542 7.75 7.75 0 002.778.532h.013c84.98-.145 129.52-20.068 149.541-33.056-.495 25.593-4.209 78.569-24.569 128.116zm130.696-135.362c-.176 6.58-3.43 12.317-9.951 17.546-4.183 3.351-10.055 6.992-14.368 5.257-6.32-2.54-10.359-14.988-11.856-22.742 8.702-12.808 16.005-22.505 21.819-29.69 6.121 6.725 14.651 18.592 14.356 29.629zm-11.546-56.316c-6.101 6.017-19.469 20.655-39.332 50.207-16.96 25.237-32.935 27.754-40.028 27.38.749-14.557.512-24.924.367-28.843 15.578-41.536-.997-66.556-7.502-74.232-2.565-44.338-15.5-87.889-16.063-89.759-1.239-4.135-5.597-6.488-9.732-5.239a7.814 7.814 0 00-5.239 9.732c.13.438 12.765 42.938 15.373 85.171-10.055 8.32-52.425 38.037-144.44 38.154-.115 0-.222.029-.336.034-.115-.005-.224-.034-.34-.034-.3-.028-.374 0-.56 0-79.051 0-121.747-22.275-138.322-33.573 36.222-21.308 162.22-96.07 219.508-138.376.101-.074.176-.168.271-.246 22.311-5.752 41.33-13.786 57.52-23.055 15.974 14.194 82.889 78.619 108.855 182.679zm-61.379-244.53c-39.475 52.189-101.378 78.649-183.991 78.649a7.75 7.75 0 00-1.782.223 7.764 7.764 0 00-1.782-.223c-82.288 0-144.043-26.265-183.549-78.067-19.59-25.687-28.595-51.666-32.46-66.396 4.648 2.441 7.86 3.457 8.34 3.601a7.82 7.82 0 008.781-3.196 7.816 7.816 0 00-.555-9.326c-17.337-20.585-16.222-45.857-14.017-59.09 3.801-22.792 16.228-44.029 30.923-52.845 21.09-12.654 31.432-38.678 36.333-57.49 5.926 13.344 10.483 30.411 4.865 43.516a7.822 7.822 0 001.669 8.616 7.813 7.813 0 008.623 1.633c1.405-.608 32.411-14.745 31.473-70.872a129.203 129.203 0 0010.5 7.423c51.883 32.824 92.928 42.536 94.651 42.934a7.822 7.822 0 006.623-1.5 7.813 7.813 0 002.951-6.116v-3.808c10.923 6.047 27.847 13.771 45.823 15.768a7.818 7.818 0 008.276-10.24l-7.468-22.408c17.713 11.009 44.77 25.786 68.783 30.455 3 .585 6.073-.642 7.852-3.13 1.337-1.872 4.646-7.784 4.901-20.562 5.815 7.564 9.355 14.027 12.179 19.183 5.386 9.84 10.508 19.14 25.229 18.263 10.79-.635 17.731-8.85 22.135-18.011 2.305 6.226 5.038 13.098 8.114 19.927 4.4 9.009 9.36 15.221 14.826 18.598-8.236 50.44-4.325 86.509-3.202 94.815a7.859 7.859 0 00-.404 1.644c-.05.391-5.314 39.264-34.64 78.032zm72.709-81.604c-6.461 19.38-19.169 26.39-28.161 28.913 4.199-13.312 5.453-22.242 5.589-23.285a7.761 7.761 0 00.653-2.322c.032-.277 2.578-22.031 15.13-35.433 2.354 1.319 5.173 3.491 7.08 6.915 3.368 6.046 3.268 14.53-.291 25.212zm.086-55.165a46.05 46.05 0 00-11.185 6.025 7.758 7.758 0 00-5.401 4.564c-2.815 2.745-5.268 5.745-7.391 8.866.183-14.874 1.409-33.6 4.902-54.922 15.989-4.564 26.057-28.862 28.044-34.069 1.539-4.029-.481-8.54-4.508-10.083a7.82 7.82 0 00-10.093 4.501c-4.427 11.527-13.121 24.535-18.523 24.771-2.191.086-6.478-3.213-11.07-12.607-9.076-20.17-15.271-41.697-15.332-41.912a7.83 7.83 0 00-8.139-5.638 7.824 7.824 0 00-7.139 6.865c-1.219 10.162-6.783 29.336-14.704 29.803-4.404.258-5.063-.052-10.602-10.167-4.539-8.288-10.755-19.638-24.191-33.572a7.76 7.76 0 00-4.136-2.233c-3.165-16.166-9.855-37.602-22.67-65.795a7.817 7.817 0 00-10.35-3.881 7.815 7.815 0 00-3.883 10.349c24.677 54.287 24.644 80.331 22.932 90.25-34.346-9.316-74.696-38.686-75.126-39a7.82 7.82 0 00-9.226-.011 7.818 7.818 0 00-2.809 8.787l10.442 31.328c-20.777-5.701-38.088-17.988-38.289-18.132a7.816 7.816 0 00-12.384 6.343v7.445c-14.772-4.684-45.1-15.929-80.237-38.156-47.403-29.992-56.048-85.841-56.178-86.719-.603-4.269-4.552-7.241-8.826-6.647a7.815 7.815 0 00-6.653 8.826c.293 2.099 6.377 42.765 37.422 76.207-.6 1.229-.911 2.618-.786 4.08 2.178 25.255-2.249 41.384-7.646 51.429-2.27-25.924-19.169-50.053-20.118-51.387a7.817 7.817 0 00-14.152 3.779c-.048.505-5.185 50.766-32.923 67.41-18.685 11.21-33.717 36.205-38.299 63.678-2.468 14.805-1.799 29.038 1.832 41.963-8.668-10.013-17.034-25.381-19.879-48.535-.318-2.595-1.954-4.879-4.292-6.053-1.585-.796-38.897-20.244-41.772-83.484-2.995-65.869 30.005-121.887 30.336-122.441a7.817 7.817 0 00-1.275-9.647 7.812 7.812 0 00-9.686-.927l-30.122 19.578c.791-9.072 3.669-21.613 12.437-33.277 13.07-17.388 35.569-28.062 66.872-31.726.123-.014.238-.059.36-.079.254-.042.502-.099.752-.166a7.744 7.744 0 001.493-.567 7.77 7.77 0 00.739-.43c.209-.136.412-.275.609-.433.246-.196.471-.414.693-.64.111-.113.24-.198.345-.319.055-.064.09-.137.143-.202.054-.067.123-.118.175-.187.111-.146.185-.312.285-.464.146-.223.293-.442.414-.675.113-.217.201-.44.293-.665a7.85 7.85 0 00.282-.772c.065-.227.107-.456.152-.687.052-.271.1-.54.123-.813.02-.235.02-.47.018-.707a7.85 7.85 0 00-.041-.826c-.011-.102 0-.204-.015-.305-.064-.419-5.765-42.056 46.255-60.637 12.584-4.495 27.204-10.572 42.681-17.006 57.99-24.11 130.161-54.111 178.676-38.464 25.365 8.182 45.144 18.551 59.682 27.957-10.625-3.231-17.583-4.972-18.734-5.254-4.196-1.039-8.422 1.534-9.455 5.723a7.818 7.818 0 005.722 9.456c1.107.272 101.688 25.494 152.49 74.764l-19.843-2.089c-3.409-.345-6.608 1.518-7.974 4.631a7.814 7.814 0 001.987 9.006c.855.756 85.644 76.265 89.595 143.422 3.98 67.692-19.087 122.699-43.126 131.602z"/>
    </g>
    <g fill="#312D3D">
      <circle cx="565.949" cy="483.399" r="13.564"/>
      <circle cx="803.038" cy="483.399" r="13.564"/>
    </g>
  </g>
</svg>
