<svg xmlns="http://www.w3.org/2000/svg" viewBox="0 0 1200 1200">
  <path fill="#F0CAB9" d="M609.288 262.802c69.915-4.433 262.552 39.886 254.695 227.105 0 0 34.181-25.776 34.278 30.469s-49.009 27.016-49.009 27.016-37.814 134.186-217.297 143.09l-20.286 22.654-24.786-22.654s-154.762-.114-216.909-137.433c0 0-40.368 25.103-46.279-33.295-5.911-50.186 31.547-28.997 31.547-28.997s-32.078-209.815 254.046-227.955z"/>
  <path fill="#F7E3CF" d="M422.025 854.303s-7.857-36.978-28.482-50.278c0 0-32.34 16.625-11.751 50.278 15.878 20.885 40.233 0 40.233 0zM798.18 855.809s3.928-37.272 28.482-45.286c0 0 30.089 14.005 14.732 36.892s-43.214 8.394-43.214 8.394zM511.235 652.654c63.429 35.52 144.618 25.372 208.048-12.686 68.503-40.595 83.726-126.858 88.801-202.973 3.787-40.392-5.618-78.9-19.459-116.774-59.743-46.609-139.478-59.946-179.337-57.419-69.805 4.426-120.63 20.276-157.643 41.689-63.273 113.797-63.555 283.105 59.59 348.163z"/>
  <path fill="#4F2813" d="M355.24 490.758s-36.005-201.959 254.047-227.956c276.302 15.407 254.695 227.105 254.695 227.105s43.214 8.154 42.232-128.858-109.505-177.279-136.76-175.315c0 0-46.476-94.284-165.033-94.284s-151.95 97.983-151.95 97.983-104.209-4.68-132.148 129.871c-27.939 134.551 21.168 173.001 34.917 171.454z"/>
  <g fill="#5C331D">
    <path d="M844.502 218.569c-17.126-14.294-35.01-23.328-49.623-28.231 6.796 41.11-12.041 78.255-36.159 110.515 50.672 27.989 77.218 66.847 91.03 102.061 25.328-58.379 23.265-127.685-5.248-184.345zM618.915 127.206c-155.26 0-132.847 114.561-115.365 156.565 29.255-9.863 64.114-17.238 105.737-20.969 43.887 2.447 80.233 9.86 110.368 20.577 7.742-42.061 33.404-156.173-100.74-156.173zM427.425 192.468a127.524 127.524 0 00-32.838 12.691c-36.445 52.767-50.843 119.642-20.438 180.129 15.396-29.772 42.024-60.419 87.519-83.948-25.066-29.974-38.856-70.653-34.243-108.872z"/>
  </g>
  <path fill="#7739B4" d="M611.668 765.542l81.014-83.731 28.553-8.799s35.156 38.833 58.284 80.371 42.45 50.641 42.45 50.641-24.607 38.47-39.504 101.104c-14.897 62.635-57.413 107.557-74.375 112.467l-15.409 35.941s-67.782 25.137-166.764 0l-20.412-38.887s-42.582-15.288-69.731-109.521-42.232-101.104-42.232-101.104 31.428-25.126 45.178-50.641c13.75-25.515 41.228-72.371 62.355-80.371l39.157 11.462 49.735 49.287c.001 0-29.227 22.654 21.701 31.781z"/>
  <g fill="#8B4DD1">
    <path d="M716.745 868.313c-60.892 38.057-152.23 45.669-208.048 0-7.182 64.639 17.258 127.019 34.959 189.271 54.872 11.136 98.566 7.052 124.112 2.249 27.512-59.719 58.913-121.971 48.977-191.52zM779.52 753.383c-13.992-25.129-32.375-49.252-44.723-64.402-5.854 3.96-10.44 8.831-10.44 11.878 16.187 62.725 27.562 130.275 63.666 183.379 14.748-50.179 33.947-80.214 33.947-80.214s-19.321-9.103-42.45-50.641zM478.709 691.592c-15.465 18.147-30.795 44.733-39.988 61.792-13.75 25.515-45.178 50.641-45.178 50.641s10.723 4.889 30.36 62.906c31.971-37.016 39.507-91.41 64.497-135.625 9.024-16.242-1.205-27.35-9.691-39.714z"/>
  </g>
  <g fill="#E5E0B9">
    <path d="M713.717 122.877V59.039s119.82-12.768 214.104 98.213c73.66 93.079 42.052 209.102 42.052 209.102h-63.642s-7.381-168.834-136.777-180.62c0-.001-20.879-38.671-55.737-62.857zM575.903 743.582s8.357 24.277 35.765 21.96l81.014-83.731-60.728 8.671-20.286 22.654-24.786-22.654-46.649-1.501 49.735 44.78-14.065 9.821zM681.798 1057.618s-93.304 15.959-151.003 0c0 0 18.906 61.627 61.875 42.476 0 0 40.513 47.143 89.128-42.476z"/>
  </g>
  <g fill="#F7F4DB">
    <path d="M927.821 157.252C833.537 46.271 713.717 59.039 713.717 59.039v32.979c25.768 14.525 46.381 32.85 68.995 53.203 74.809 18.579 133.651 98.458 157.304 180.139 10.149 7.612 22.834 7.612 32.983 5.074a37.445 37.445 0 002.653-1.194c3.425-41.775-.113-111.69-47.831-171.988zM631.954 690.482l-56.051 53.1s8.357 24.277 35.765 21.96l81.014-83.731-60.728 8.671zM600.306 1064.675c-5.227 11.641-8.337 24.002-7.034 36.067 5.17 5.338 43.346 40.164 88.526-43.124 0 0-38.599 6.59-81.492 7.057z"/>
  </g>
  <path fill="#DB9D49" d="M514.345 746.529s79.103 43.214 193.746 0c0 0 24.585 40.571 17.552 94.927 0 0-112.368 73.869-233.856-5.618 0 0-6.906-32.346 22.558-89.309z"/>
  <path fill="#E4B54B" d="M574.513 763.64c-13.481 4.897-26.962 9.483-40.443 13.335-23.482 6.404-21.819 41.544-22.211 70.666 87.049 45.788 166.309 17.712 198.535 2.133-1.138-34.221-4.285-68.281-22.411-96.417-45.253 13.697-84.079 14.138-113.47 10.283z"/>
  <path fill="#AC1A16" d="M496.267 771.146l-8.931 32.878s102.559 75.095 246.691 0l-8.385-32.878c.001 0-119.285 58.501-229.375 0z"/>
  <path fill="#C92424" d="M523.281 783.194c-6.55 10.071-8.025 22.527-9.906 35.017 36.02 15.93 106.874 34.925 196.344-2.774-.699-12-2.006-24.049-5.497-35.693-34.933 12.22-107.657 30.323-180.941 3.45z"/>
  <path fill="#502A1E" d="M540.233 1085.052s-15.084 53.346 40.897 37.141c0 0 12.352 25.792 53.78 19.152 41.428-6.64 44.439-16.451 35.351-58.56 0 0-48.759 59.317-79.79 8.9 0 0-17.967 18.1-50.238-6.633z"/>
  <path fill="#663728" d="M590.471 1091.685s-.217.215-.622.553c-3.386 12.555-4.232 25.453-2.318 38.049 7.356 6.917 21.835 15.151 47.379 11.057 8.165-1.309 14.817-2.746 20.199-4.524 2.717-13.497 3.248-28.096 3.314-42.179-16.399 14.203-46.435 32.003-67.952-2.956z"/>
  <g fill="#F0B1A6">
    <ellipse cx="484.586" cy="562.271" rx="44.25" ry="27.57"/>
    <ellipse cx="730.691" cy="562.271" rx="44.25" ry="27.57"/>
  </g>
  <g>
    <path fill="#E5E0B9" d="M320.323 296.625s-71.808-20.712-71.808-41.74 80.336 20.87 80.336 20.87l-8.528 20.87z"/>
    <path fill="#F7F4DB" d="M248.516 254.886c0 8.45 11.602 16.847 25.474 23.871 1.767-8.222 4.115-16.308 7.116-24.144-17.264-6.091-32.59-8.912-32.59.273z"/>
  </g>
  <g>
    <path fill="#48C1D9" d="M311.87 354.332v22.916s-84.745 13.486-89.328-7.362 89.328-15.554 89.328-15.554z"/>
    <path fill="#87ECFE" d="M261.79 354.523c-21.544 1.49-41.416 5.501-39.248 15.363 2.07 9.418 20.503 11.82 40.089 11.634-.947-9.099-1.26-18.036-.841-26.997z"/>
  </g>
  <g>
    <path fill="#F062A8" d="M318.574 446.652l5.119 21.881s-65.356 42.724-78.451 24.826c-13.095-17.898 73.332-46.707 73.332-46.707z"/>
    <path fill="#FF75B9" d="M245.242 493.359c6.477 8.852 25.736 2.871 43.551-5.433a245.227 245.227 0 01-10.935-25.035c-20.299 9.509-39.257 21.391-32.616 30.468z"/>
  </g>
  <g>
    <path fill="#DEA6D8" d="M429.52 884.239c-3.279-15.74 33.971-45.632 49.577-23.904 0 0-4.803 46.975 0 64.797 0 0 25.873-11.727 51.698 31.572s34.321 33.392 34.321 33.392 40.567-65.518 76.906-52.892c36.339 12.625 32.44 44.011 50.66 29.305 18.22-14.706 25.305-42.543 45.883-29.305 0 0 11.554-31.546 0-60.749-11.554-29.203 48.224-22.223 47.884 13.262-.34 35.484-37.825 118.058-78.358 127.879l-11.07 35.941s-113.005 27.467-174.358-6.201l-17.157-32.686s-51.796-14.307-75.986-130.411z"/>
    <path fill="#F0C7EB" d="M692.682 966.509c-18.22 14.706-14.321-16.68-50.66-29.305s-76.906 52.892-76.906 52.892-8.496 9.906-34.321-33.392c-7.173-12.026-14.347-19.797-20.973-24.764 5.581 43.641 21.788 84.561 36.611 124.942 39.942 11.428 89.926 6.974 121.066 2.213 18.219-35.244 30.128-72.59 41.069-110.26-4.645 5.971-9.603 12.603-15.886 17.674z"/>
    <g>
      <path fill="#F062A8" d="M764.952 931.742c-17.76 12.686-32.983 30.446-40.595 50.743-2.537 2.537-10.149 0-12.686 2.537-15.223 12.686-25.372 38.057-48.206 35.52-17.76-5.074-20.297-32.983-38.057-32.983-20.297 0-40.595 12.686-55.818 27.909-7.612 5.074-17.76 2.537-25.372-2.537-22.835-15.223-32.983-35.52-55.818-50.743-10.149-5.074-15.223-22.835-20.297-38.057-3.716-11.147-18.305-14.095-30.837-8.918 26.005 87.759 68.24 99.437 68.24 99.437l17.157 32.686c61.353 33.668 174.358 6.201 174.358 6.201l11.07-35.941c28.905-7.004 56.247-50.999 69.687-88.536-4.182-1.42-8.601-.839-12.826 2.682z"/>
      <path fill="#FF75B9" d="M663.465 1020.543c-17.76-5.074-20.297-32.983-38.057-32.983-20.297 0-40.595 12.686-55.818 27.909-7.612 5.074-17.76 2.537-25.372-2.537-8.446-5.631-15.153-11.957-21.412-18.462 3.469 21.282 11.712 40.557 18.315 60.789 42.495 14.044 98.466 8.381 130.484 3.193 5.369-15.969 11.519-31.677 16.593-47.744-6.755 6.46-14.458 10.976-24.733 9.835z"/>
    </g>
  </g>
  <g>
    <g fill="#FFE5B5">
      <path d="M688.022 971.666c-.616-1.092-4.025-3.068-4.192-4.063-.5-2.976 4.049-5.233 1.713-9.712-3.724-7.138-7.546-2.588-12.549-2.577-3.411.008-6.906-5.402-11.758-2.568-3.789 2.213-1.791 5.442-2.662 8.533l.79 2.134a10.733 10.733 0 00-3.246 2.165c-1.24 2.812-2.771 4.557-.992 7.687 1.804 3.174 4.13 1.732 5.995 3.688 2.774 2.909 3.934 10.827 10.659 8.705 2.241-.707 3.208-4.381 4.712-4.802 1.133-.317 4.355 1.605 6.003 1.357 5.003-.753 8.226-5.765 5.527-10.547zM546.959 910.981c-1.447-5.261-5.569-3.338-8.124-5.986-2.083-2.158-.097-6.199-4.068-8.136-3.296-1.608-6.181.003-8.284 2.459a19.61 19.61 0 00-2.048 4.185c-.253 1.36-1.361 1.442-3.324.247-4.496 2.345-6.196 2.143-6.117 8.029.031 2.315 1.358 3.392 1.337 5.316-.035 3.214-3.183 5.167-1.404 8.813 1.944 3.984 4.343 2.347 7.44 3.462 1.491-1.502 2.391-1.645 2.7-.427a12.623 12.623 0 001.709 2.479c3.898 1.77 7.145 3.997 10.829-.626 1.692-2.123.514-4.215 1.425-6.552-1.114-1.697-1.053-2.602.183-2.715a18.553 18.553 0 003.939-1.377c2.477-2.792 4.979-4.914 3.807-9.171z"/>
    </g>
    <g fill="#B7A1D9">
      <path d="M685.525 1028.673a63.249 63.249 0 00-1.593-1.234c2.827-3.16 3.803-7.518 1.002-11.063-2.385-3.018-6.779-3.837-10.193-2.24-.668.313-1.214.798-1.856 1.124-1.309.665-.258.59-1.442-.086-1.964-1.122-3.342-2.834-5.676-3.3-4.327-.863-7.837 2.737-7.483 6.952.086 1.017.294 2.045.616 3.013.427 1.286.693 1.046-.351 1.875-1.701 1.349-3.337 2.236-3.96 4.499-1.389 5.039 2.786 7.123 6.634 8.575 1.08.408.987.021 1.349 1.433.252.987.575 1.957.993 2.886.803 1.786 1.852 3.335 3.71 4.124 1.548.657 3.37.731 4.95.136.836-.315 1.487-.772 2.107-1.401.62-.63 1.389-2.548 2.068-2.927.743-.415 4.336 1.139 5.803 1.035 2.153-.152 4.055-1.046 5.369-2.764 2.766-3.613 1.281-7.995-2.047-10.637zM623.497 945.869a67.685 67.685 0 00-1.593-1.234c2.828-3.159 3.803-7.518 1.002-11.063-2.385-3.018-6.779-3.836-10.193-2.24-.668.313-1.214.798-1.856 1.124-1.309.665-.258.59-1.442-.086-1.964-1.122-3.342-2.834-5.676-3.3-4.327-.863-7.837 2.737-7.483 6.952.086 1.017.294 2.045.616 3.013.427 1.286.694 1.046-.351 1.875-1.701 1.348-3.337 2.236-3.961 4.499-1.389 5.04 2.786 7.123 6.634 8.575 1.08.408.987.021 1.349 1.433.253.987.575 1.957.993 2.887.803 1.786 1.851 3.335 3.71 4.124 1.548.657 3.37.731 4.95.136.836-.315 1.487-.772 2.107-1.401.62-.63 1.389-2.548 2.068-2.927.743-.415 4.336 1.139 5.803 1.035 2.153-.152 4.055-1.046 5.369-2.764 2.767-3.614 1.282-7.995-2.046-10.638zM717.502 914.368a67.685 67.685 0 00-1.593-1.234c2.828-3.16 3.803-7.518 1.002-11.063-2.385-3.018-6.779-3.837-10.193-2.24-.668.313-1.214.798-1.856 1.124-1.309.665-.258.59-1.442-.086-1.964-1.122-3.342-2.834-5.676-3.3-4.327-.863-7.837 2.737-7.483 6.952.086 1.017.294 2.045.616 3.013.427 1.286.693 1.046-.351 1.875-1.701 1.349-3.336 2.235-3.96 4.499-1.389 5.04 2.785 7.123 6.634 8.575 1.08.408.987.021 1.349 1.433.252.987.575 1.957.993 2.887.803 1.787 1.852 3.335 3.71 4.124 1.548.657 3.37.731 4.95.136.836-.315 1.488-.772 2.107-1.401.62-.63 1.389-2.548 2.069-2.927.743-.414 4.336 1.139 5.803 1.035 2.153-.152 4.054-1.046 5.369-2.764 2.766-3.614 1.28-7.995-2.048-10.638zM772.377 856.327c-1.182-1.529-2.273-2.558-4.207-3.013 1.875-4.102 3.332-9.464-1.598-12.067-1.956-1.032-4.504-.821-6.321.393-1.942 1.298-2.474 3.153-3.16 5.258-2.125-2.276-4.737-3.577-7.814-2.282-2.896 1.219-4.516 4.409-3.673 7.483.437 1.591 1.569 2.832 2.699 3.984.362.369 1.319.908 1.46 1.342.212.655-.26.939-.68 1.65-1.59 2.694-2.666 6.329-.713 9.12 1.767 2.524 5.277 3.59 8.076 2.119 1.343-.706 2.406-1.81 3.022-3.2.495-1.117.665-2.392 1.959-2.426 1.451-.038 3.148.988 4.63 1.147 1.507.161 3.142-.179 4.39-1.052 2.688-1.883 3.595-5.583 1.93-8.456zM504.785 861.407c-2.328-3.595-7.794-3.038-10.102.182-2.731-3.252-6.97-6.71-11.205-3.813-1.858 1.271-2.945 3.386-2.796 5.652.175 2.653 1.881 3.914 3.635 5.618-2.735.849-4.85 2.539-5.249 5.516-.331 2.472.785 5.076 3.028 6.32a6.734 6.734 0 004.466.722c1.356-.245 2.744-1.295 4.063-1.418.938-.087.259-.301.989.344.469.415.786 1.14 1.197 1.637.944 1.142 2.108 2.28 3.435 2.967 5.968 3.088 11.748-4.475 7.773-9.616-.624-.807-2.116-1.648-1.982-2.866.072-.651 1.724-2.205 2.175-2.798 1.85-2.429 2.942-5.858.573-8.447z"/>
    </g>
    <g fill="#48C1D9">
      <path d="M607.863 1008.596l-1.574.467c.206-5.433-.207-17.478-7.538-18.601-7.251-1.111-9.706 9.635-10.267 14.781-4.708-2.633-14.034-5.11-16.194 1.926-1.828 5.956 6.127 10.106 5.97 14.066-.186 4.686-6.989 8.993-4.1 14.66 3.37 6.61 12.42 2.686 16.67-.699 1.557 5.948 5.392 15.215 13.099 13.634 9.352-1.918 5.611-14.164 3.195-20.216 5.932-.899 14.292-.923 16.002-8.247 2.11-9.047-7.794-13.768-15.263-11.771zM537.409 994.457l-1.117-.659c2.088-2.85 3.008-6.324 1.178-9.531-2.893-5.07-7.151-3.061-11.533-2.911a8.136 8.136 0 00-2.399 1.997 18.832 18.832 0 00-4.207-2.557c-1.692-.352-3.074-1.233-4.888-.64-7.717 2.524-1.625 7.675-2.934 11.756-.846 2.637-4.219 2.371-4.413 5.982-.25 4.667 2.964 4.585 5.586 6.908.888.786 2.367.61 3.168 1.304 2.561 2.217 1.682 5.839 5.954 6.913 6.021 1.513 4.895-3.919 8.418-5.318 1.155-.459 3.431 1.487 4.969.91 7.272-2.73 9.617-9.181 2.218-14.154zM461.949 899.047l-1.117-.659c2.089-2.849 3.008-6.324 1.178-9.531-2.893-5.07-7.151-3.061-11.533-2.911a8.136 8.136 0 00-2.399 1.997 18.802 18.802 0 00-4.208-2.557c-1.692-.352-3.074-1.233-4.888-.639-7.717 2.525-1.625 7.675-2.934 11.756-.846 2.637-4.219 2.371-4.412 5.982-.25 4.667 2.964 4.585 5.586 6.908.888.786 2.367.611 3.168 1.304 2.561 2.217 1.682 5.839 5.954 6.913 6.021 1.513 4.895-3.919 8.418-5.318 1.155-.459 3.431 1.487 4.969.91 7.272-2.731 9.617-9.182 2.218-14.155zM666.918 908.11c-1.151-1.491-4.26-2.098-4.981-3.445-1.07-1.997.534-3.523.345-6.125-.523-7.211-10.66-9.564-12.404-1.58-10.83-4.739-18.076 7.355-6.187 11.125-2.721 2.61-3.973 6.782-.937 9.844 4.362 4.398 6.689-.016 10.445-1.404 3.172-1.172 3.635 1.103 7.821.959 4.644-.16 8.7-4.545 5.898-9.374z"/>
    </g>
    <g fill="#FFC65C">
      <path d="M489.925 952.001c3.629-5.998-1.351-10.247-6.747-11.454a5.76 5.76 0 00-3.079.799c-1.153.885-2.208.535-3.163-1.048-3.585-.078-6.208-1.839-8.678 2.275-2.733 4.552.637 1.919-.41 5.994-.724 2.815-3.966 3.546-2.645 7.502.069.207 8.559 9.877 9.038 10.149 3.827 2.169 6.634-1.182 9.378-1.997 1.858-.552 3.811.508 5.815-.71 4.217-2.561 4.295-8.371.491-11.51zM771.854 925.654c-1.434-5.631-7.316-7.751-12.545-6.712-.158-4.782-1.189-12.762-7.054-13.544-5.719-.763-8.333 5.904-9.172 10.386-4.019-1.619-9.69-2.298-11.932 2.255-2.814 5.716 3.462 7.097 4.018 11.353.446 3.411-4.948 7.012-3.444 11.512 2.039 6.103 9.162 4.98 13.471 2.232 1.742 5.07 6.029 11.692 12.422 9.049 6.206-2.566 4.529-10.292 2.836-15.226 6.085-.925 13.489-3.098 11.4-11.305zM469.328 851.02c3.18-4.412 6.24.568 10.855-3.613 5.12-4.637 1.218-10.169-3.446-12.9 3.41-4.651 2.621-11.27-3.473-13.178-4.501-1.409-7.535 2.059-10.842 1.604-4.153-.572-6.007-4.573-10.26-.363-3.856 3.817.832 6.76-.193 10.043-1.318 4.221-6.714 3.879-3.412 9.601 1.899 3.291 5.649 2.792 7.739 4.601 3.122 2.704 7.555 13.46 13.032 4.205zM646.844 980.348c-1.686-2.851-5.013-3.776-8.002-2.579-1.832-11.642-16.026-11.003-12.703 1.078-6.708-1.623-11.964 6.044-6.289 10.969 1.663 1.443 5.653.979 6.624 2.202 2.583 3.253-.768 7.238 4.941 9.201 3.126 1.075 6.477-.313 7.819-3.409.828-1.912-.813-4.738.121-6.324 2.594-4.401 11.004-2.804 7.489-11.138zM567.857 969.343c-1.687-2.852-5.013-3.775-8.002-2.579-1.811-11.649-16.025-11.002-12.703 1.077-6.708-1.622-11.964 6.044-6.289 10.969 1.663 1.443 5.653.978 6.625 2.202 2.583 3.253-.768 7.238 4.941 9.201 3.126 1.075 6.477-.313 7.819-3.409.828-1.912-.813-4.738.121-6.323 2.593-4.4 11.004-2.804 7.488-11.138zM567.044 1052.886c-.731-1.248-1.727-2.118-2.988-2.609 7.239-9.378-3.036-19.215-9.443-8.544-3.976-6.79-13.255-3.67-11.945 3.92.269 1.559 2.937 4 2.823 5.156-.075.766-2.276 2.01-2.553 2.853-1.154 3.517-3.101 6.188.492 9.374 5.834 5.171 7.171-2.622 11.397-3.232 2.555-.369 5.142 3.4 8.425 2.4 4.229-1.288 5.357-5.612 3.792-9.318zM607.284 893.144c-1.687-2.852-5.013-3.775-8.002-2.579-1.811-11.649-16.025-11.002-12.703 1.077-6.708-1.622-11.964 6.044-6.289 10.969 1.663 1.443 5.653.978 6.625 2.202 2.583 3.253-.768 7.238 4.941 9.201 3.126 1.075 6.477-.313 7.819-3.409.828-1.912-.813-4.738.121-6.323 2.593-4.4 11.003-2.804 7.488-11.138z"/>
    </g>
  </g>
  <g fill="#FF99C4">
    <path d="M919.779 186.856c-1.675-.354-3.478-.457-5.21-.21-.722-.06-1.44-.078-2.134-.006-2.2.229-4.324.719-6.193 1.98-.853.576-1.755 1.244-2.424 2.052-.183.22-.334.427-.493.637-.607-1.777-1.388-3.495-2.419-5.114-1.914-3.006-4.447-5.952-7.74-7.481-3.824-1.776-8.131-2.427-12.007-.364-4.247 2.26-5.623 7.157-5.11 11.647.479 4.195 1.626 8.149 3.737 11.837.925 1.616 2.021 3.069 3.216 4.431-3.043.569-5.919 1.925-8.139 4.136-3.801 3.786-5.391 10.405-1.342 14.656 4.078 4.282 10.519 2.535 15.206.389 2.292-1.05 4.351-2.624 6.141-4.454.02.076.035.155.056.23 1.118 4.108 3.261 7.887 6.12 11.029 3.305 3.632 9.159 6.043 13.684 3.066 4.869-3.203 4.473-9.306 3.629-14.355-.499-2.985-1.55-5.872-3.004-8.554 2.066-.228 3.966-.778 5.836-1.793 2.106-1.143 3.71-2.795 5.1-4.707 1.469-2.02 2.107-4.462 2.336-6.91.225-2.408-.424-5.231-1.816-7.229-1.68-2.414-4.099-4.293-7.03-4.913zM809.538 110.777c1.788-.766 3.495-1.717 5.074-2.974 3.669-2.921 6.071-7.398 6.006-12.141-.049-3.588-2.874-6.127-6.343-6.343-5.652-.352-11.766 1.291-16.367 4.632-.292.212-.58.43-.866.649a12.924 12.924 0 00-.799-1.509c-1.329-2.11-3.163-4-5.354-5.219-4.629-2.576-10.533-2.53-15.076.233-1.316.801-2.565 2.253-2.915 3.791-.358 1.571-.346 3.527.639 4.888 2.105 2.909 4.51 5.316 7.557 7.255.396.252.817.474 1.231.705a46.906 46.906 0 00-3.358 4.396c-1.52 2.271-3.008 4.773-3.158 7.566-.171 3.196 1.371 6.174 4.125 7.836 4.572 2.758 10.21.261 13.602-3.129.502-.502.941-1.07 1.398-1.619 2.577 4.06 6.48 7.544 11.508 6.241 3.766-.976 6.163-4.28 6.027-8.155-.089-2.673-1.431-4.976-2.931-7.103zm-18.39-16.663l.164.389c-.058-.142-.121-.277-.183-.413l.019.024zm15.108 19.841c.204.12.389.274.552.464a5.486 5.486 0 01-.552-.464zM978.105 297.464a7.257 7.257 0 00-.437-1.03c-.058-2.103-1.081-4.123-3.061-5.268-3.32-1.921-6.84-2.926-10.62-3.366-3.482-.405-7.164-.04-10.315 1.556-2.228 1.129-3.89 3.125-4.709 5.46-.981 2.795-.057 6.075 1.942 8.181 2.79 2.939 7.106 3.228 10.909 3.39 3.967.17 7.989-.277 11.862-1.12 3.245-.708 5.444-4.667 4.429-7.803zM832.118 163.731c-3.322-1.971-7.612-1.557-10.826.41-4.489 2.748-7.421 7.776-8.98 12.682-1.627 5.12-1.642 10.955.018 16.066 1.023 3.151 4.44 5.518 7.803 4.43a6.79 6.79 0 001.306-.599c5.111-1.011 9.279-4.378 11.859-9.01 1.273-2.285 2.185-4.786 3.02-7.259 1.044-3.091 1.648-6.25.984-9.498-.608-2.974-2.587-5.681-5.184-7.222zM740.819 111.207c-1.749-.968-3.505-1.384-5.489-1.502-.942-.056-1.905.124-2.828.269a6.486 6.486 0 00-1.433.397c-1.04.42-2.069.82-2.992 1.458-.906.626-1.796 1.311-2.6 2.068-.956.901-1.782 1.927-2.599 2.952a4.757 4.757 0 00-1.312 2.041 4.777 4.777 0 00-.546 2.444c0 1.267.476 2.712 1.277 3.792.109.757.337 1.494.758 2.148.868 1.346 2.176 2.564 3.791 2.915 1.767.384 3.552.704 5.356.852.645.053 1.295.064 1.94.004 1.117-.103 2.293-.212 3.371-.561 3.727-1.21 7.232-4.261 8.081-8.237.541-2.531.257-4.934-.946-7.228-.806-1.539-2.317-2.975-3.829-3.812z"/>
  </g>
  <g fill="#C6C9A9">
    <path d="M969.141 256.368c-4.036-4.325-9.608-6.815-15.321-8.034-5.424-1.157-11.464-2.011-17.027-1.703-7.241.4-13.016 3.552-16.515 10.04-1.879 3.485-3.274 7.623-1.883 11.551 1.337 3.776 4.325 6.643 8.225 7.669 3.205.844 7.036-1.064 7.803-4.43.695-3.053-.75-6.298-3.652-7.507.545-1.362 1.558-2.883 2.477-3.682.1-.033.452-.238.662-.356.024-.013.027-.017.047-.029.025-.007.031-.007.061-.017.475-.146.959-.256 1.434-.395.121-.036.201-.061.269-.083.032 0 .073 0 .148-.007 1.97-.177 3.948-.1 5.917.055 1.741.137 3.48.317 5.214.529.232.032.616.084.722.101a51.82 51.82 0 011.52.258c.904.168 1.803.36 2.695.585.977.247 1.943.531 2.891.869.137.049.705.286.797.315.229.109.461.214.686.33.827.426 1.625.916 2.382 1.458.063.054.135.117.211.189.437.414.857.824 1.268 1.264 2.27 2.432 6.708 2.465 8.971 0 2.389-2.604 2.419-6.377-.002-8.97zm-38.891 7.573c.023.083.059.202.104.339a1.643 1.643 0 01-.107-.341l.003.002zM933.235 312.085c-3.177-4.224-7.907-5.844-12.88-3.745-6.932 2.925-10 11.189-11.498 17.981-1.978 8.969-2.035 18.032-.465 27.06.55 3.158 4.452 5.228 7.457 4.496a6.721 6.721 0 004.461-.622c12.965-6.715 19.532-21.37 16.794-35.548-.638-3.307-1.832-6.913-3.869-9.622zM911.428 181.275c.255-.634.516-1.266.776-1.898 1.029-2.367 2.196-4.667 3.692-6.771a18.61 18.61 0 011.952-1.989 16.05 16.05 0 011.98-1.158 14 14 0 011.668-.458c.268-.013.537-.019.805-.013.554.116 1.11.22 1.646.427l-.927-.391.029.002c1.5.612 2.883.969 4.551.509 1.471-.405 3.066-1.543 3.791-2.915.778-1.472 1.168-3.255.639-4.888-.471-1.457-1.438-3.161-2.915-3.791-2.173-.927-3.869-1.443-6.251-1.633-.079-.006-.16.01-.239.005-.083-.861-.348-1.702-.853-2.451-4.622-6.861-10.123-13.971-18.81-15.46-4.547-.78-8.957-.306-13.502.174l-13.94 1.471c-2.292.242-4.257 1.056-5.477 3.142-1.04 1.777-1.327 4.658 0 6.403 4.386 5.768 10.548 9.174 17.7 10.283 7.611 1.18 15.194.039 22.83.402-.559.409-1.114.826-1.639 1.274-4.925 4.195-7.4 10.521-9.74 16.353-.572 1.428-.103 3.619.64 4.888.77 1.316 2.279 2.57 3.791 2.915 1.624.37 3.446.29 4.888-.639 1.474-.953 2.265-2.174 2.915-3.793zm11.533-12.283a.251.251 0 01-.027-.004l-.185-.078c.072.03.141.052.212.082zM776.003 141.233c-6.627 2.979-10.955 10.76-10.036 17.966.418 3.279 2.617 6.51 6.343 6.343 3.076-.138 6.792-2.817 6.343-6.343-.091-.714-.101-1.405-.118-2.122-.003-.111-.009-.161-.015-.232.02-.062.035-.098.06-.191.062-.227.5-1.41.458-1.449.175-.317.352-.633.523-.953.058-.108.086-.171.114-.235a2.35 2.35 0 00.195-.161c.223-.238.458-.463.701-.68l.113-.077c.354-.208.71-.399 1.071-.587.053.029.798-.213 1.237-.351.208-.038.562-.098.818-.102.292-.005.583.01.875.027.291.094 1.203.392 1.227.343.21.119.414.236.486.259.099.092.196.185.289.282.041.066.077.126.142.226l.004.009c.023.082.063.205.126.392.059.218.1.44.145.661-.038.622.037 1.259.003 1.886-.015.267-.062.646-.085.84-.113.634-.23 1.268-.378 1.895a35.77 35.77 0 01-1.089 3.712c-.059.166-.46 1.174-.5 1.309a33.43 33.43 0 01-.603 1.286 36.102 36.102 0 01-2.074 3.613c-.379.581-.782 1.15-1.199 1.706-.146.168-.58.7-.676.811-.785.901-1.634 1.706-2.515 2.502.156-.164-.702.538-.826.618-.17.11-1.319.702-1.376.783-.372.12-.748.223-1.119.348l-.167.034a9.91 9.91 0 01-.862.017c-3.319-.031-6.495 2.939-6.343 6.343.155 3.463 2.787 6.31 6.343 6.343 13.096.121 22.251-14.168 25.097-25.473 1.59-6.316 1.805-13.469-2.843-18.599-5.008-5.53-13.464-5.887-19.889-2.999zM751.994 60.951c-.78-.638-1.61-1.134-2.479-1.447-.496-.667-1.11-1.224-1.815-1.597-3.271-1.728-6.615-.616-8.678 2.275-6.423 9-9.468 20.688-8.168 31.675.402 3.405 2.58 6.347 6.343 6.343 9.192-.01 17.444-5.745 20.765-14.264 3.01-7.725.463-17.727-5.968-22.985zM848.896 134.611l.044-.176c-.086.095-.146.321-.166.451l.103-.21.019-.065z"/>
    <path d="M874.243 110.668c-.159-3.558-2.787-6.191-6.343-6.343-12.258-.524-25.015 4.996-32.838 14.5-4.524 5.497-8.863 12.987-6.288 20.328 2.336 6.663 8.885 11.831 16.145 11.505 7.847-.353 14.96-6.276 16.55-14.028.665-3.241-.938-7.007-4.43-7.803-3.167-.721-7.089.954-7.803 4.43-.082.399-.191.785-.295 1.177.027-.03.056-.047.086-.042a2.717 2.717 0 00-.149.282c-.097.355-.123.343-.103.21l-.064.13c-.193.357-.421.686-.637 1.027-.176.19-.421.446-.454.479-.025.025-.196.212-.365.378-.38.232-.74.487-1.135.698-.027.014-.17.077-.312.143l-.081.021c-.224.055-.442.126-.667.18-.16.038-.452.042-.577.046a14.256 14.256 0 00-.293-.017c-.225-.048-.491-.097-.566-.119-.139-.039-.276-.087-.414-.134-.299-.174-.82-.485-1.06-.627-.143-.152-.314-.288-.46-.437-.114-.117-.222-.241-.331-.363-.097-.168-.215-.384-.324-.583.055.236.039.401-.103-.142a1.69 1.69 0 01-.017-.075 1.008 1.008 0 00-.104-.168c.026-.003.051.014.074.037a8.456 8.456 0 00-.135-.552c-.006-.126-.007-.252-.012-.374-.001-.021.001-.084.003-.157.034-.208.081-.525.105-.624.123-.5.296-.977.461-1.462.162-.303.305-.616.469-.918a28.301 28.301 0 011.854-2.939c.089-.125.18-.248.271-.372.439-.501.855-1.021 1.306-1.513a34.294 34.294 0 012.357-2.329c.38-.341.772-.667 1.163-.996l.093-.075.447-.33c1.878-1.345 3.875-2.462 5.96-3.452l.091-.041c.183-.073.45-.182.514-.206a35.19 35.19 0 016.386-1.768l.507-.086.079-.009c.339-.031.676-.067 1.016-.093 1.36-.103 2.72-.111 4.082-.052 3.317.143 6.49-3.018 6.341-6.342zm-25.99 25.17a.865.865 0 01-.109.129c.056-.08.1-.137.109-.129zm-1.132 1.187c-.078.069-.147.122-.185.128-.004 0 .081-.057.185-.128zm-1.283.707c.316-.102.627-.157 0 0zm-.051.018c-.146.068-.284.137-.286.157.003-.048.136-.106.286-.157zm-1.262.31a.366.366 0 00-.091-.031c.047.008.083.018.091.031zm-1.118-.232c0 .002-.069-.038-.108-.061.063.026.111.049.108.061zm-1.9-1.318c-.01.009-.057-.062-.122-.172.076.088.134.162.122.172zm-.114-4.588c.049-.147.042-.125 0 0z"/>
    <path d="M841.034 135.707c-.031-.133-.082-.282-.15-.348l.029.131c.035.06.076.135.121.217zM898.628 242.734c-1.792-.756-3.951-.766-5.645.32-3.227 2.069-5.989 4.992-7.569 8.513-.788 1.755-1.434 3.465-1.721 5.364-.392 2.594-.353 4.76.059 7.363.099.624.444 1.262.873 1.857-1.04 2.734.163 6.319 2.761 7.691 3.169 1.674 6.734.693 8.678-2.276 4.685-7.155 9.221-15.999 6.235-24.721-.654-1.917-1.791-3.318-3.671-4.111z"/>
  </g>
  <g>
    <path fill="#BE2C2C" d="M670.169 1078.753c-17.294-5.865-37.043-1.133-50.103 11.545a35.035 35.035 0 00-10.149-15.084c-3.533-3.089-9.674-7.498-13.477-2.042-1.375 1.973-1.502 4.727-.345 6.825 1.347 2.442 4.383 3.642 6.364 5.571 3.654 3.559 6.108 8.259 6.856 13.38.302 2.066.314 4.272.057 6.345-.296 2.376-.662 4.524.731 6.663 3.099 4.759 9.511 2.506 11.269-1.973 4.187-10.669 15.689-18.862 26.758-20.673 3.678-.602 7.446-.611 11.135-.105 1.707.234 3.399.581 5.063 1.03 1.693.456 3.306 1.244 5.098.944 6.722-1.129 6.98-10.311.743-12.426zm-65.522 9.075c-.019-.024-.042-.059-.057-.073l.057.073z"/>
    <path fill="#A1201D" d="M542.056 1074.141c-4.194 1.414-6.154 6.571-3.197 10.114 3.519 4.216 8.458 1.292 12.845.567 8.644-1.428 18.344-.251 25.846 4.472 3.32 2.091 5.506 6.279 9.956 5.57 4.457-.71 6.655-5.71 4.372-9.553-2.036-3.427-6.302-6.14-9.699-8.038-3.633-2.029-7.575-3.475-11.624-4.419-9.326-2.172-19.416-1.775-28.499 1.287zm31.368 12.939c-.388-.153-.306-.135 0 0z"/>
    <g>
      <path fill="#1A122E" d="M766.448 483.806a7.616 7.616 0 00-10.667 1.454c-21.053 27.701-51.596 17.54-52.951 17.07-3.949-1.39-8.29.665-9.703 4.618a7.609 7.609 0 004.609 9.727c4.794 1.712 11.643 3.079 19.477 3.079 15.855 0 35.731-5.602 50.689-25.282a7.612 7.612 0 00-1.454-10.666z"/>
      <path fill="#DD4B5C" d="M642.043 576.568c-4.182-.358-7.884 2.717-8.258 6.905-.766 8.59-3.682 14.889-8.664 18.721-4.206 3.233-9.357 4.412-13.591 4.771-5.019.06-13.762-.668-19.756-5.759-4.45-3.776-6.712-9.42-6.918-17.256-.111-4.203-3.679-7.491-7.81-7.41a7.612 7.612 0 00-7.408 7.81c.322 12.289 4.487 21.893 12.376 28.541 4.889 4.12 10.564 6.458 15.931 7.764.82.532 1.756.916 2.778 1.102.3.057 3.221.565 7.505.565 1.131 0 2.384-.056 3.682-.145 3.271-.042 5.447-.336 5.716-.376a7.541 7.541 0 002.586-.893c4.666-1.146 9.586-3.139 14.062-6.547 8.57-6.529 13.508-16.467 14.675-29.534a7.615 7.615 0 00-6.906-8.259z"/>
      <path fill="#1A122E" d="M926.158 144.544C843.485 44.536 717.023 49.85 711.688 50.128a7.612 7.612 0 00-7.215 7.906l2.123 53.09c-45.693-25.187-94.914-25.65-98.132-25.65-.146 0-.283.035-.427.043-.144-.008-.281-.043-.427-.043-1.244 0-30.882.139-65.639 12.206-44.631 15.496-77.001 43.767-94.031 81.894-8.994.025-27.509 1.635-48.801 12.469-21.024 10.699-48.1 32.464-69.269 76.584-6.663-3.396-35.893-18.152-56.321-26.145-16.509-6.459-27.678-1.078-31.422 7.123-3.632 7.97-.617 19.512 14.316 27.334 17.198 9.008 48.461 22.416 59.499 27.093-.45 1.41-.904 2.81-1.343 4.253-3.782 12.668-6.244 25.24-7.743 37.517-6.209.078-45.102.655-67.82 3.254-17.621 2.014-24.973 11.997-24.44 20.996.515 8.707 8.516 17.459 25.23 17.459h.208c19.317-.083 52.974-2.831 65.078-3.873.563 20.897 3.467 39.963 6.992 55.862-.463.1-.924.234-1.376.425-1.467.621-36.202 15.347-57.559 27.076-15.545 8.538-18.568 20.561-14.668 28.689 2.587 5.385 8.429 9.461 16.826 9.461 3.912 0 8.382-.887 13.333-2.937 17.502-7.249 43.812-20.869 53.962-26.201a209.559 209.559 0 002.559 6.71c-7.764 6.157-11.553 17.979-11.553 35.949 0 17.832 5.282 30.534 15.699 37.753 6.848 4.746 14.765 6.186 21.856 6.186 6.141 0 11.646-1.08 15.306-2.028 25.444 61.085 71.98 95.243 119.883 114.129-9.411 8.674-24.499 24.521-37.503 47.06-21.824 37.828-39.417 60.681-60.535 78.625-3.665 1.923-15.308 8.882-19.898 21.843-3.288 9.291-2.292 19.329 2.958 29.832 5.015 10.03 12.143 16.162 21.184 18.228 2.267.518 4.514.741 6.712.741 7.305 0 14.027-2.486 18.938-4.969 1.776 6.511 3.426 13.766 4.86 21.894 12.432 70.46 51.776 124.828 82.538 140.299 5.264 13.379 9.116 22.546 9.603 23.698l.002.007c.51 1.214 6.718 15.669 18.051 29.594l-.001.002c-.216 2.401-1.99 23.808 2.391 35.86 4.029 11.073 20.069 13.345 32.555 13.345 4.133 0 7.879-.25 10.667-.51.342-.032.662-.12.988-.195.766 1.455 1.614 2.896 2.657 4.29 7.768 10.389 21.293 15.644 40.238 15.642 1.241 0 2.51-.022 3.798-.067 27.024-.949 39.923-4.343 47.592-12.53 8.082-8.627 7.978-20.357 7.832-36.591-.04-4.549-.087-9.703.042-15.273a7.565 7.565 0 00-1.973-5.268c3.46-5.494 6.858-11.721 10.12-18.821.084-.181.122-.37.19-.554 6.803-3.009 10.173-5.492 10.61-5.826a7.586 7.586 0 002.391-3.09c.468-1.109 4.33-10.297 9.61-23.715 30.763-15.471 70.104-69.841 82.538-140.299 1.433-8.122 3.088-15.374 4.872-21.887 4.909 2.482 11.626 4.963 18.926 4.962 2.195 0 4.445-.223 6.712-.741 9.041-2.066 16.169-8.199 21.184-18.228 5.25-10.505 6.246-20.54 2.956-29.832-4.587-12.961-16.23-19.921-19.896-21.843-21.117-17.94-38.709-40.792-60.538-78.625-13.002-22.539-28.09-38.386-37.501-47.06 47.903-18.887 94.438-53.044 119.882-114.13 3.66.948 9.164 2.029 15.307 2.029 7.089 0 15.01-1.441 21.856-6.186 10.416-7.219 15.699-19.921 15.699-37.753 0-17.97-3.789-29.794-11.555-35.95 5.158-12.812 21.053-56.886 20.128-110.854l58.957 1.203.159.001a7.612 7.612 0 007.391-5.804c1.214-4.959 28.766-122.713-53.908-222.722zm-318.54-43.846c.144 0 .279-.035.422-.043.144.008.28.043.426.043 1.137 0 113.702 1.016 149.817 88.468.522 7.509 2.356 56.794-35.123 89.044-43.806-17.186-87.687-24.462-116.165-24.462-.076 0-.147.02-.223.022-.076-.002-.147-.022-.223-.022-27.471 0-69.727 7.006-112.104 23.559-36.432-32.275-34.627-80.746-34.113-88.139 36.015-87.259 146.173-88.468 147.286-88.47zM444.875 194.8c-.159 17.208 3.158 57.66 34.221 88.937-31.951 14.312-62.958 34.269-86.647 60.995-33.152 37.399-48.085 82.762-44.55 134.965-2.476-.811-5.241-1.398-8.126-1.528-5.34-13.171-33.506-88.756-10.597-165.492C361.194 207.33 423.681 195.631 444.875 194.8zm-181.368 68.655c-6.497-3.403-7.77-6.899-7.53-7.533.325-.683 4.311-2.279 12.027.738 20.421 7.99 51.199 23.615 55.689 25.908a271.245 271.245 0 00-2.762 7.044c-11.625-4.942-41.4-17.763-57.424-26.157zM239.972 372.29c-7.205.006-10.094-2.463-10.178-3.134-.035-.753 2.738-4.032 10.974-4.974 20.3-2.322 55.407-2.992 64.708-3.133a253.562 253.562 0 00-.332 7.307c-10.546.912-45.919 3.851-65.172 3.934zm22.861 115.863c-6.779 2.808-10.273 1.544-10.607.951-.317-.683 1.003-4.766 8.273-8.759 18.841-10.349 49.696-23.637 55.274-26.021a305.375 305.375 0 002.009 7.033c-7.54 3.979-36.751 19.257-54.949 26.796zm75.124 55.735c-6.041-4.215-9.106-12.697-9.106-25.213 0-19.086 4.752-23.611 6.794-24.67 3.997-2.08 11.152 1.37 13.992 3.368.04.028.084.043.124.071 2.468 17.782 6.311 34.016 11.332 48.804-6.441 1.443-16.452 2.298-23.136-2.36zm58.013 311.573c-4.452-1.018-8.038-4.353-10.959-10.196-3.313-6.623-4.073-12.629-2.257-17.847 1.908-5.493 6.293-9.369 9.453-11.575 4.542 3.983 13.461 13.962 21.341 35.454-4.361 2.516-11.513 5.551-17.578 4.164zm42.109 29.861c-8.375-47.455-23.853-69.385-33.595-78.892 24.569-22.755 42.178-50.367 57.572-77.049 15.683-27.184 34.999-44.092 40.738-48.777a311.33 311.33 0 0024.811 6.903 7.559 7.559 0 002.412 3.909l49.075 42.065-7.039 6.461a7.614 7.614 0 00-1.412 9.467l4.393 7.467c-25.728-3.835-47.143-11.849-55.845-15.437l-1.119-27.952c-.171-4.2-3.65-7.401-7.911-7.302a7.616 7.616 0 00-7.302 7.911l1.236 30.877-7.375 15.668c-2.024-.971-4.371-1.026-6.419-.093a7.605 7.605 0 00-4.259 5.146l-9.165 37.976a7.611 7.611 0 003.736 8.459c.296.162 1.356.737 3.035 1.6l-2.831 17.231c-2.388 6.369-16.921 47.732-9.276 91.058 3.946 22.367 14.46 53.885 24.191 80.295-23.667-22.532-48.799-66.816-57.651-116.991zm284.244-54.653c-31.101 33.875-102.665 34.231-115.391 34.017-.184-.013-.36-.055-.548-.055-.823 0-80.783-.394-110.116-33.835l1.687-10.268c21.89 9.697 61.43 24.279 101.296 24.277 2.958 0 5.922-.096 8.878-.266 1.181.014 2.376.043 3.545.043 51.18-.002 88.651-13.318 109.156-23.011l1.493 9.098zm-137.576 261.873c-.212.009-.42-.028-.633 0-19.094 2.375-34.35-13.336-43.881-27.127 6.512 1.942 14.075 3.396 22.253 3.396 2.159 0 4.366-.124 6.599-.342a387.45 387.45 0 0020.883 2.725c-2.495 5.712-5.117 13.544-5.221 21.348zm-24.007-39.005c-15.103-.494-27.853-7.048-32.409-9.702-5.61-13.536-34.886-85.275-41.801-124.465-5.013-28.411.764-56.653 5.027-71.955 18.23 15.709 45.365 23.823 68.714 27.997-8.832 83.769-2.301 154.527.469 178.125zm49.198-224.192a7.603 7.603 0 00-1.594-.054c-.174.011-.349.014-.522.025-.979-.013-1.947-.016-2.937-.04-.708-.029-1.386.079-2.045.244-46.034 1.093-94.218-20.468-109.762-28.111l5.533-22.921c39.762 18.168 84.794 21.818 104.884 22.501.344.055.685.12 1.043.128.404.012 2.124.042 4.888.01 2.622.028 4.263 0 4.652-.01.346-.007.675-.071 1.008-.123 20.072-.679 65.128-4.326 104.916-22.506l5.642 23.372c-12.978 7.44-54.2 27.854-115.706 27.485zm93.22-72.767l4.933 10.483c-39.767 16.49-84.72 18.581-98.77 18.816-14.029-.236-59.014-2.33-98.795-18.823l5.009-10.64c14.789 5.954 50.996 18.595 90.3 17.775a7.584 7.584 0 002.463-.463c.453.084.917.139 1.394.139.052 0 .107 0 .161-.003 48.032-1 79.831-11.691 93.305-17.284zm-100.203 2.424h-.595c-2.884 0-5.751-.079-8.594-.223-.067-.131-.107-.268-.182-.396l-6.702-11.39 55.379-50.837c.277-.254.503-.54.733-.823 10.7-1.031 22.154-2.582 34.032-4.849-26.831 29.634-64.944 61.1-74.071 68.518zm10.958-61.824c.488 0 .963-.056 1.426-.144 1.173-.031 2.367-.07 3.575-.113l-7.336 6.734-7.158-6.506c.095.004.185.028.281.028 1.489 0 3.035-.012 4.606-.031 1.571.02 3.117.032 4.606.032zm-32.749-1.351c.412.85.979 1.643 1.721 2.317l17.435 15.847-9.936 9.121-35.381-30.327a383.253 383.253 0 0026.161 3.042zm-31.185 416.398c-1.425-3.921-1.914-10.186-1.987-16.083 7.959 6.145 17.287 10.721 27.912 11.688a48.835 48.835 0 00-.057 7.403c-11.438.826-23.986-.671-25.868-3.008zm116.796-11.276c.119 13.169.196 21.868-3.719 26.048-4.304 4.594-15.719 6.975-37.017 7.723-10.726.352-24.871-.949-31.264-9.415-3.474-4.601-4.063-10.388-3.805-14.985 2.05 2.222 4.557 4.081 7.511 5.488 6.7 3.189 13.979 4.792 21.415 4.792 6.197 0 12.503-1.115 18.667-3.35 7.997-2.899 17.977-8.551 28.185-19.478l.027 3.177zm-33.399 1.99c-13.097 4.75-23.38 1.492-28.347-.877-2.458-1.169-3.868-2.733-4.571-5.069-2.178-7.239 2.864-19.011 5.816-24.548 5.337.279 10.448.426 15.284.425 20.308-.001 36.233-2.279 48.336-5.204-10.48 18.251-22.947 30.352-36.518 35.273zm56.875-59.027c-7.327 4.296-41.179 20.795-114.11 10.233-2.449-19.904-9.72-91.216-.807-176.469 13.568 1.675 24.305 2.065 28.819 2.151.047.003.089.018.137.02.56.025 2.966.116 6.784.116 20.419 0 81.194-2.675 115.937-32.71 4.267 15.265 10.104 43.608 5.073 72.118-6.927 39.249-36.302 111.196-41.833 124.541zm143.353-198.647c-2.911 5.825-6.482 9.158-10.914 10.186-6.038 1.406-13.167-1.593-17.591-4.143 7.878-21.383 16.809-31.422 21.338-35.443 3.158 2.209 7.52 6.076 9.424 11.553 1.814 5.218 1.055 11.224-2.257 17.847zm-77.047-115.884c15.396 26.687 33.008 54.299 57.574 77.049-9.742 9.507-25.221 31.437-33.595 78.892-8.855 50.174-33.985 94.457-57.652 116.988 9.731-26.41 20.244-57.927 24.191-80.293 7.645-43.325-6.89-84.687-9.278-91.057l-2.778-16.919c2.121-1.281 3.372-2.131 3.661-2.331a7.61 7.61 0 003.06-8.04l-9.167-37.976a7.605 7.605 0 00-4.259-5.146c-2.048-.93-4.394-.875-6.418.093l-7.373-15.667 1.236-30.878a7.615 7.615 0 00-7.302-7.911c-4.269-.094-7.74 3.102-7.911 7.302l-1.125 28.111c-8.948 3.886-33.388 13.013-71.081 16.083 19.215-16.378 49.606-43.622 69.667-68.213a7.58 7.58 0 001.684-4.123 305.558 305.558 0 0016.137-4.743c5.723 4.655 24.969 21.46 40.729 48.779zm-147.25-47.453c-85.172-.912-225.356-27.862-245.156-191.665-6.4-52.937 6.955-98.502 39.69-135.432C459.285 292.28 557.6 268.97 606.547 268.97c.076 0 .147-.02.223-.022.076.002.147.022.223.022 50.387 0 151.415 23.792 208.005 87.635 32.478 36.641 45.756 81.609 39.462 133.658-19.797 163.803-159.98 190.753-245.153 191.665zm271.351-138.04c-6.689 4.66-16.709 3.801-23.137 2.361 5.02-14.789 8.863-31.023 11.331-48.806.037-.026.079-.039.116-.066 2.837-1.998 9.978-5.456 14.001-3.373 2.042 1.059 6.794 5.585 6.794 24.67 0 12.517-3.065 20.999-9.105 25.214zm-1.822-65.719c-2.887.131-5.655.719-8.133 1.531 3.411-51.341-11.441-96.107-44.314-133.193-23.957-27.028-55.367-47.258-87.824-61.824 31.947-31.401 35.333-72.498 35.172-89.881 21.193.831 83.682 12.524 115.689 117.839 22.867 76.605-5.262 152.34-10.59 165.528zm87.602-120.446l-53.59-1.094c-1.207-15.664-3.941-31.946-8.846-48.38-21.749-71.56-57.971-102.691-84.529-116.205-21.251-10.814-39.737-12.439-48.749-12.47-11.653-26.163-29.192-45.051-48.499-58.688l-2.224-55.58c28.015.56 127.859 8.418 194.423 88.938 67.539 81.701 56.286 178.778 52.014 203.479z"/>
      <path fill="#1A122E" d="M515.789 502.329c-1.293.45-31.876 10.663-52.956-17.069a7.612 7.612 0 00-12.121 9.212c14.96 19.682 34.834 25.282 50.689 25.282 7.832 0 14.685-1.366 19.477-3.079 3.947-1.41 5.996-5.738 4.604-9.692-1.39-3.949-5.726-6.029-9.693-4.654z"/>
    </g>
  </g>
</svg>
